<?xml version="1.0" encoding="UTF-8"?>
<svg width="241px" height="31px" viewBox="0 0 241 31" version="1.1" xmlns="http://www.w3.org/2000/svg" xmlns:xlink="http://www.w3.org/1999/xlink">
    <!-- Generator: Sketch 41 (35326) - http://www.bohemiancoding.com/sketch -->
    <title>borgun-logo</title>
    <desc>Created with Sketch.</desc>
    <defs></defs>
    <g id="Symbols" stroke="none" stroke-width="1" fill="none" fill-rule="evenodd">
        <g id="Menu-Bar" transform="translate(-370.000000, -35.000000)" fill="#003856">
            <g id="borgun-logo" transform="translate(370.000000, 35.000000)">
                <path d="M0.4645275,30.5060269 C0.341015,30.5060269 0.2235275,30.4583346 0.1367675,30.3707 C0.0500075,30.2848538 0,30.1692 0,30.0463923 L0.02892,0.472988462 C0.02892,0.219623077 0.23618,0.0145461538 0.49164,0.0145461538 L24.043365,0.0145461538 C28.9603675,0.0145461538 32.673575,3.85914231 32.68442,8.95625769 C32.6862275,10.3691423 32.5175275,12.18145 31.23842,13.8924115 C33.4574275,15.8746231 34.775095,18.5632769 34.78112,21.1595269 C34.77148,26.4009115 30.9751275,30.5060269 26.13886,30.5060269 L0.4645275,30.5060269 Z M26.13886,24.1069115 C27.3950725,24.1069115 28.27412,22.8889692 28.27412,21.1452192 C28.27412,19.4676423 27.3757925,18.2502962 26.1370525,18.2502962 L6.693775,18.2502962 L6.693775,24.1069115 L26.13886,24.1069115 Z M24.03734,12.3203538 C25.26644,12.3137962 26.1244,11.0958538 26.1244,9.35985385 C26.1244,7.38062308 25.0766525,6.48877692 24.038545,6.48400769 L6.6714825,6.48400769 L6.6714825,12.3203538 L24.03734,12.3203538 Z" id="Fill-1"></path>
                <path d="M52.8950415,30.4973231 C45.480074,30.4973231 39.215279,23.53365 39.211664,15.2924192 C39.215279,7.01065 45.4493465,0.0153807692 52.825754,0.0153807692 L62.262109,0.0153807692 C69.674064,0.0153807692 75.9358465,7.01065 75.9358465,15.2924192 C75.9358465,23.53365 69.706599,30.4973231 62.3313965,30.4973231 L52.8950415,30.4973231 Z M53.3481215,6.48305385 C49.4017465,6.48305385 45.933154,10.6006885 45.924719,15.2936115 C45.933154,19.9787846 49.384274,24.0982077 53.3095615,24.1077462 L61.780109,24.1077462 C65.7475715,24.0982077 69.234239,19.9775923 69.2420715,15.2888423 C69.234239,10.5989 65.7668515,6.48305385 61.8204765,6.48305385 L53.3481215,6.48305385 Z" id="Fill-3"></path>
                <path d="M236.877334,30.4783654 C236.769486,30.4783654 236.665254,30.442 236.583314,30.3734423 L213.089429,11.27625 L213.089429,30.0187308 C213.089429,30.2732885 212.882169,30.4783654 212.624901,30.4783654 L206.884281,30.4783654 C206.627014,30.4783654 206.419754,30.2732885 206.419754,30.0187308 L206.419754,0.459634615 C206.419754,0.205076923 206.627014,0 206.884281,0 L209.732901,0 C209.840749,0 209.946789,0.0381538462 210.028729,0.104923077 L233.919059,19.69275 L233.919059,0.459634615 C233.919059,0.205076923 234.128126,0 234.383586,0 L240.127821,0 C240.383281,0 240.590541,0.205076923 240.590541,0.459634615 L240.590541,30.0187308 C240.590541,30.2732885 240.383281,30.4783654 240.127821,30.4783654 L236.877334,30.4783654 Z" id="Fill-5"></path>
                <path d="M135.439168,30.4920769 C127.791033,30.4920769 121.797966,23.8145577 121.794953,15.2919423 C121.797966,6.72282692 127.791033,0.00894230769 135.439168,0.00894230769 L157.086993,0.00894230769 C157.343658,0.00894230769 157.550918,0.214019231 157.550918,0.468576923 L157.550918,6.02473077 C157.550918,6.2775 157.343658,6.48257692 157.086993,6.48257692 L135.667516,6.48257692 C131.777173,6.48913462 128.485113,10.5239038 128.475473,15.2931346 C128.485113,20.0629615 131.778981,24.0995192 135.668721,24.1072692 L150.870398,24.1072692 L150.870398,18.2363462 L139.728968,18.2363462 C139.473508,18.2363462 139.265043,18.0312692 139.265043,17.7767115 L139.265043,12.7863077 C139.265043,12.53175 139.472303,12.3266731 139.728968,12.3266731 L157.075546,12.3189231 C157.199058,12.3189231 157.316546,12.3684038 157.403306,12.45425 C157.490066,12.5400962 157.540073,12.6575385 157.540073,12.7785577 L157.540073,30.0324423 C157.540073,30.287 157.331006,30.4920769 157.075546,30.4920769 L135.439168,30.4920769 Z" id="Fill-7"></path>
                <path d="M178.738253,30.5093654 C171.50283,30.5093654 165.615803,23.6732692 165.61279,15.2692885 L165.61279,0.467980769 C165.61279,0.213423077 165.821858,0.00834615385 166.077318,0.00834615385 L171.861318,0.00834615385 C172.116778,0.00834615385 172.324038,0.213423077 172.324038,0.467980769 L172.324038,15.2692885 C172.330665,20.2149808 175.263033,24.0977308 179.00034,24.1072692 L185.513968,24.1072692 C189.241635,24.0977308 192.172195,20.2137885 192.183643,15.2663077 L192.164363,0.481096154 C192.164363,0.360076923 192.213768,0.242038462 192.300528,0.156192308 C192.387288,0.0703461538 192.504775,0.0214615385 192.628288,0.0214615385 L198.411083,0.0214615385 C198.66835,0.0214615385 198.87561,0.226538462 198.87561,0.481096154 L198.87561,15.2692885 C198.87561,23.6732692 192.988583,30.5093654 185.750148,30.5093654 L178.738253,30.5093654 Z" id="Fill-9"></path>
                <path d="M108.297387,30.5071596 C108.114227,30.5071596 107.948539,30.4004481 107.875034,30.2353135 L102.429639,18.2383135 L88.9764168,18.2383135 L88.9764168,30.0463327 C88.9764168,30.3002942 88.7691568,30.5053712 88.5118893,30.5053712 L82.7712693,30.5053712 C82.6471543,30.5053712 82.5302693,30.4576788 82.4417018,30.3718327 C82.3549418,30.2847942 82.3067418,30.1685442 82.3067418,30.0463327 L82.3290343,0.469351923 C82.3290343,0.215986538 82.5362943,0.0109096154 82.7935618,0.0109096154 L107.564747,0.0174673077 C112.179294,0.0174673077 115.796102,4.13808269 115.799114,9.39914038 C115.796102,13.6932365 113.260782,17.1175442 109.427074,18.1017942 L115.049002,29.8519865 C115.116482,29.9938712 115.105034,30.1607942 115.021889,30.2943327 C114.936334,30.4260827 114.786914,30.5071596 114.627854,30.5071596 L108.297387,30.5071596 Z M107.534019,12.3214865 C109.031834,12.3214865 109.890999,11.2543712 109.890999,9.39437115 C109.890999,7.572525 109.022194,6.48514038 107.562939,6.48514038 L88.9764168,6.48514038 L88.9764168,12.3214865 L107.534019,12.3214865 Z" id="Fill-11"></path>
            </g>
        </g>
    </g>
</svg>