<?xml version="1.0" encoding="utf-8"?>
<!-- Generator: Adobe Illustrator 19.1.0, SVG Export Plug-In . SVG Version: 6.00 Build 0)  -->
<svg version="1.1" id="logo" xmlns="http://www.w3.org/2000/svg" xmlns:xlink="http://www.w3.org/1999/xlink" x="0px" y="0px"
	 viewBox="0 0 96.3 28.4" style="enable-background:new 0 0 96.3 28.4;" xml:space="preserve">
<style type="text/css">
	.st0{fill:#0093AD;}
	.st1{fill:#51BFD7;}
	.st2{fill:#E6C226;}
	.st3{fill:#FDE87E;}
	.st4{fill:#AD162E;}
	.st5{fill:#EC4F44;}
	.st6{fill:none;}
	.st7{fill:#193A3E;}
</style>
<g id="merki">
	<path id="blatt-hus" class="st0" d="M7.6,24.6C7.6,24.6,7.5,24.6,7.6,24.6l-0.1,2.9c0,0,0,0.1,0.1,0.1h2.9c0,0,0.1,0,0.1-0.1v-2.9
		c0,0,0-0.1-0.1-0.1H7.6z"/>
	<path id="blatt-2" class="st1" d="M8.9,13.6v6.6c0.1,0,0.1,0,0.2,0l6.8,3.9c0.1,0.1,0.3,0,0.3-0.2v-6.3l-7-4
		C9.1,13.6,9,13.6,8.9,13.6z"/>
	<path id="blatt-1" class="st0" d="M2,17.6c-0.1,0-0.1,0.1-0.1,0.2v6.2c0,0.1,0.1,0.2,0.3,0.2l6.8-3.9v-6.6L2,17.6z"/>
	<path id="gult-hus" class="st2" d="M21.8,18C21.8,18,21.7,18,21.8,18l-0.1,2.9c0,0,0,0.1,0.1,0.1h2.9c0,0,0.1,0,0.1-0.1v-2.9
		c0,0,0-0.1-0.1-0.1H21.8z"/>
	<path id="gult-2" class="st3" d="M30.2,11l-6.9-4c-0.1,0-0.1,0-0.2,0v6.6c0.1,0,0.1,0,0.2,0l6.8,3.9c0.1,0.1,0.3,0,0.3-0.2v-6.2
		C30.3,11.1,30.3,11.1,30.2,11z"/>
	<polygon id="gult-1" class="st2" points="16.1,11.1 16.1,17.6 23.1,13.6 23.1,7 	"/>
	<path id="rautt-2" class="st4" d="M8.9,7V0.5L2,4.5C2,4.5,1.9,4.5,1.9,4.6v6.2c0,0.1,0.1,0.2,0.3,0.2L8.9,7C9,7,9.1,7,9.1,7l7,4
		l-7-4C9.1,7,9,7,8.9,7z"/>
	<path id="rautt-1" class="st5" d="M9.1,0.5c-0.1,0-0.1,0-0.2,0V7C9,7,9.1,7,9.1,7l7,4V4.6c0-0.1,0-0.1-0.1-0.2L9.1,0.5z"/>
</g>
<g id="letur">
	<path class="st6" d="M74.6,10.5c0,1.4,0.6,1.4,1,1.4c0.7,0,1.3-0.6,1.4-1.6V8.6c-0.2-0.1-0.5-0.1-0.8-0.1
		C75,8.4,74.6,9.4,74.6,10.5z"/>
	<path class="st6" d="M58.1,8.5c-1.1,0-1.4,0.8-1.4,1.8c0,1.1,0.3,1.8,1.4,1.8c1.1,0,1.3-0.7,1.3-1.8C59.5,9.2,59.2,8.5,58.1,8.5z"
		/>
	<path class="st6" d="M43.1,8.3c-0.4,0-0.7,0.1-1,0.2V12c0.2,0,0.5,0.1,0.8,0.1c1,0,1.6-0.9,1.6-2.2C44.5,8.7,44.1,8.3,43.1,8.3z"/>
	<path class="st6" d="M48.8,20.2c-1.1,0-1.4,0.8-1.4,1.8c0,1.1,0.3,1.8,1.4,1.8c1.1,0,1.3-0.7,1.3-1.8C50.2,21,49.9,20.2,48.8,20.2z
		"/>
	<path class="st6" d="M56.3,20.2c-1.1,0-1.4,0.8-1.4,1.8c0,1.1,0.3,1.8,1.4,1.8c1.1,0,1.3-0.7,1.3-1.8C57.6,21,57.4,20.2,56.3,20.2z
		"/>
	<path class="st6" d="M89.1,10.5c0,1.4,0.6,1.4,1,1.4c0.7,0,1.3-0.6,1.4-1.6V8.6c-0.2-0.1-0.5-0.1-0.8-0.1
		C89.5,8.4,89.1,9.4,89.1,10.5z"/>
	<path class="st6" d="M65.3,12c0.7,0,1.3-0.6,1.4-1.6V8.6c-0.2-0.1-0.5-0.1-0.8-0.1c-1.1,0-1.6,1-1.6,2.1C64.3,11.9,64.9,12,65.3,12
		z"/>
	<path class="st7" d="M42.5,25.2c0,0.8-0.2,1-0.7,1c-0.4,0-1.1-0.1-1.1-0.1l-0.4,1.5c0.4,0.1,1.1,0.3,1.5,0.3c1.4,0,2.6-0.4,2.6-2.6
		v-6.4h-2V25.2z"/>
	<path class="st7" d="M48.9,18.6c-2,0-3.4,1.3-3.4,3.5c0,2,1.1,3.3,3.3,3.3c2,0,3.4-1.2,3.4-3.4C52.2,19.9,51.1,18.6,48.9,18.6z
		 M48.8,23.8c-1.1,0-1.4-0.7-1.4-1.8c0-1.1,0.3-1.8,1.4-1.8c1.1,0,1.3,0.8,1.3,1.8C50.2,23.1,49.9,23.8,48.8,23.8z"/>
	<path class="st7" d="M65,23.3c-0.3,0.2-0.9,0.3-1.4,0.3c-0.7,0-0.9-0.2-0.9-1v-3.8h-2v4c0,1.5,0.1,2.6,2.2,2.6
		c0.9,0,1.7-0.5,2.1-0.8v0.7h2v-6.5h-2V23.3z"/>
	<path class="st7" d="M70.4,19.6v-0.9h-2v6.5h2v-4.4c0.3-0.3,0.9-0.6,1.4-0.6c0.4,0,0.5,0,0.9,0.1l0.3-1.6c-0.3-0.1-0.5-0.1-0.9-0.1
		C71.3,18.7,70.7,19.2,70.4,19.6z"/>
	<path class="st7" d="M43.4,6.9c-0.3,0-0.9,0.1-1.3,0.2V4.6h-2v8.6c0.7,0.2,1.4,0.4,2.8,0.4c1.9,0,3.6-0.9,3.6-3.7
		C46.5,7.7,45.4,6.9,43.4,6.9z M43,12.1c-0.3,0-0.6-0.1-0.8-0.1V8.5c0.3-0.1,0.6-0.2,1-0.2c1.1,0,1.4,0.4,1.4,1.6
		C44.5,11.2,44,12.1,43,12.1z"/>
	<path class="st7" d="M49.7,13.7c0.9,0,1.7-0.5,2.1-0.8v0.7h2V7.1h-2v4.6c-0.3,0.2-0.9,0.3-1.4,0.3c-0.7,0-0.9-0.2-0.9-1V7.1h-2v4
		C47.5,12.5,47.6,13.7,49.7,13.7z"/>
	<rect x="36.6" y="5.2" class="st7" width="2" height="8.4"/>
	<circle class="st7" cx="43.4" cy="16.7" r="1.1"/>
	<path class="st7" d="M41.3,23.3c0-2.2-3.2-2-3.2-2.7c0-0.1,0.1-0.4,0.8-0.4c0.7,0,1.2,0.1,1.8,0.2L41,19c-0.7-0.2-1.4-0.4-2.2-0.4
		c-1.4,0-2.7,0.7-2.7,2c0,2.3,3.3,2,3.3,2.7c0,0.2-0.1,0.4-1.1,0.4c-0.4,0-1.1-0.1-2-0.2l-0.2,1.5c0.7,0.2,1.4,0.3,2.4,0.3
		C39.5,25.4,41.3,25,41.3,23.3z"/>
	<rect x="37.2" y="1.7" transform="matrix(0.5076 0.8616 -0.8616 0.5076 21.4442 -31.1084)" class="st7" width="1.4" height="2.9"/>
	<rect x="50.3" y="3.5" transform="matrix(0.5076 0.8616 -0.8616 0.5076 29.3839 -41.4664)" class="st7" width="1.4" height="2.9"/>
	<rect x="48.1" y="15.3" transform="matrix(0.5075 0.8616 -0.8616 0.5075 38.4682 -33.816)" class="st7" width="1.4" height="2.9"/>
	<path class="st7" d="M61.5,10.2L61.5,10.2c0-2.4-0.6-4-1.7-5.1l0.7-0.4l-0.7-0.8L59,4.3c-0.3-0.2-0.6-0.5-1-0.7l-1.3,0.8
		c0.3,0.2,0.6,0.4,1,0.7L57,5.5l0.8,0.8l0.6-0.4c0.4,0.4,0.7,0.8,0.7,1.1c-0.3-0.1-0.6-0.1-1-0.1c-2,0-3.4,1.3-3.4,3.5
		c0,2,1.1,3.3,3.3,3.3C60,13.7,61.5,12.7,61.5,10.2C61.5,10.3,61.5,10.3,61.5,10.2z M58.2,12.1c-1.1,0-1.4-0.7-1.4-1.8
		c0-1.1,0.3-1.8,1.4-1.8c1.1,0,1.3,0.8,1.3,1.8C59.5,11.4,59.2,12.1,58.2,12.1z"/>
	<path class="st7" d="M57.9,16.9l0.7-0.4l-0.7-0.8l-0.8,0.5c-0.3-0.2-0.6-0.5-1-0.7l-1.3,0.8c0.3,0.2,0.6,0.4,1,0.7l-0.6,0.4
		l0.8,0.8l0.6-0.4c0.4,0.4,0.7,0.8,0.7,1.1c-0.3-0.1-0.6-0.1-1-0.1c-2,0-3.4,1.3-3.4,3.5c0,2,1.1,3.3,3.3,3.3c2,0,3.4-0.9,3.4-3.4
		c0,0,0,0,0-0.1l0,0C59.6,19.6,59,18.1,57.9,16.9z M56.3,23.9c-1.1,0-1.4-0.7-1.4-1.8c0-1.1,0.3-1.8,1.4-1.8c1.1,0,1.3,0.8,1.3,1.8
		C57.6,23.2,57.4,23.9,56.3,23.9z"/>
	<rect x="69.8" y="4.6" class="st7" width="2" height="8.9"/>
	<path class="st7" d="M84.2,6.9c-0.9,0-1.7,0.5-2.1,0.8V7.1h-2v6.5h2V8.9c0.3-0.2,0.9-0.3,1.4-0.3c0.7,0,0.9,0.2,0.9,1v3.9h2v-4
		C86.4,8,86.2,6.9,84.2,6.9z"/>
	<rect x="75.4" y="3.5" transform="matrix(0.5076 0.8616 -0.8616 0.5076 41.7304 -63.072)" class="st7" width="1.4" height="2.9"/>
	<path class="st7" d="M90.6,6.9c-2,0-3.5,1.4-3.5,3.8c0,2.8,1.8,3,2.6,3c0.9,0,1.6-0.4,1.8-0.9l0,0.9c0,0,1.2,0,1.9,0V7.3
		C92.5,7,91.8,6.9,90.6,6.9z M91.5,10.4c-0.1,0.9-0.7,1.6-1.4,1.6c-0.3,0-1,0-1-1.4c0-1.1,0.5-2.1,1.6-2.1c0.4,0,0.6,0,0.8,0.1V10.4
		z"/>
	<path class="st7" d="M72.6,10.6c0,2.8,1.8,3,2.6,3c0.9,0,1.6-0.4,1.8-0.9l0,0.9c0,0,1.2,0,1.9,0V7.3C78,7,77.3,6.9,76.1,6.9
		C74.1,6.9,72.6,8.3,72.6,10.6z M76.9,8.6v1.8c-0.1,0.9-0.7,1.6-1.4,1.6c-0.3,0-1,0-1-1.4c0-1.1,0.5-2.1,1.6-2.1
		C76.5,8.4,76.7,8.5,76.9,8.6z"/>
	<path class="st7" d="M64.9,13.6c0.9,0,1.6-0.4,1.8-0.9l0,0.9c0,0,1.2,0,1.9,0V7.3c-0.9-0.3-1.6-0.4-2.8-0.4c-2,0-3.5,1.4-3.5,3.8
		C62.3,13.4,64.1,13.6,64.9,13.6z M65.9,8.4c0.4,0,0.6,0,0.8,0.1v1.8C66.6,11.3,66,12,65.3,12c-0.3,0-1,0-1-1.4
		C64.3,9.4,64.7,8.4,65.9,8.4z"/>
</g>
</svg>
